<?xml version="1.0" encoding="UTF-8" standalone="no"?>
<!-- Created with Inkscape (http://www.inkscape.org/) -->

<svg
   width="297mm"
   height="210mm"
   viewBox="0 0 297 210"
   version="1.1"
   id="svg1"
   xml:space="preserve"
   sodipodi:docname="doshisha-robot-logo.svg"
   inkscape:version="1.4.3 (fcd0343856, 2026-01-01)"
   xmlns:inkscape="http://www.inkscape.org/namespaces/inkscape"
   xmlns:sodipodi="http://sodipodi.sourceforge.net/DTD/sodipodi-0.dtd"
   xmlns="http://www.w3.org/2000/svg"
   xmlns:svg="http://www.w3.org/2000/svg"><sodipodi:namedview
     id="namedview1"
     pagecolor="#0b0b0b"
     bordercolor="#000000"
     borderopacity="0.20392157"
     inkscape:showpageshadow="2"
     inkscape:pageopacity="0.0"
     inkscape:pagecheckerboard="true"
     inkscape:deskcolor="#d1d1d1"
     inkscape:document-units="mm"
     inkscape:zoom="0.47937534"
     inkscape:cx="278.48742"
     inkscape:cy="535.07133"
     inkscape:window-width="1920"
     inkscape:window-height="1011"
     inkscape:window-x="0"
     inkscape:window-y="0"
     inkscape:window-maximized="1"
     inkscape:current-layer="g1"
     showborder="true" /><defs
     id="defs1"><rect
       x="374.44562"
       y="295.35565"
       width="691.52492"
       height="178.7992"
       id="rect9" /></defs><g
     inkscape:label="Layer 1"
     inkscape:groupmode="layer"
     id="layer1"><g
       style="clip-rule:evenodd;fill-rule:evenodd;stroke-linecap:round;stroke-linejoin:round;stroke-miterlimit:1.5"
       id="g3"
       transform="matrix(0.02290472,0,0,0.02290472,24.426942,62.960155)"
       inkscape:export-filename="../PIctures/doshisha-robot-logo"
       inkscape:export-xdpi="96"
       inkscape:export-ydpi="96"><g
         id="レイヤー1">
        <g
   transform="matrix(1.01184,0,0,1.01184,-18.641,-18.641)"
   id="g1">
            <g
   id="circle1"
   inkscape:label="circle1"
   style="opacity:1"
   inkscape:export-filename="../Pictures/doshisha-robot-logo.svg"
   inkscape:export-xdpi="96"
   inkscape:export-ydpi="96"><path
     style="baseline-shift:baseline;clip-rule:nonzero;display:inline;overflow:visible;vector-effect:none;fill-rule:nonzero;stroke-linecap:butt;stroke-linejoin:miter;enable-background:accumulate;stop-color:#000000;stop-opacity:1"
     d="M 3053.3601,1574.8 A 1478.5601,1478.5601 0 0 1 1574.8,3053.3601 1478.5601,1478.5601 0 0 1 96.23999,1574.8 1478.5601,1478.5601 0 0 1 1574.8,96.23999 1478.5601,1478.5601 0 0 1 3053.3601,1574.8 Z"
     id="path10" /><path
     style="baseline-shift:baseline;clip-rule:nonzero;display:inline;overflow:visible;fill:#ffffff;fill-rule:nonzero;stroke-linecap:butt;stroke-linejoin:miter;enable-background:accumulate;stop-color:#000000;stop-opacity:1;stroke-width:0.99240967;stroke-dasharray:none"
     d="M 1574.8008,70.566406 C 1175.8632,70.566431 793.23795,229.05501 511.14648,511.14648 229.05501,793.23795 70.566431,1175.8632 70.566406,1574.8008 c 0,398.9376 158.488604,781.5608 440.580074,1063.6523 282.09148,282.0915 664.71672,440.5801 1063.65432,440.5801 398.9376,0 781.5608,-158.4886 1063.6523,-440.5801 282.0915,-282.0915 440.5801,-664.7147 440.5801,-1063.6523 0,-398.9376 -158.4886,-781.56284 -440.5801,-1063.65432 C 2356.3616,229.05501 1973.7384,70.566406 1574.8008,70.566406 Z m 0,51.347654 c 385.3394,0 754.8696,153.06296 1027.3457,425.53906 272.4761,272.47611 425.541,642.00828 425.541,1027.34768 0,385.3394 -153.0649,754.8696 -425.541,1027.3457 -272.4761,272.4761 -642.0063,425.541 -1027.3457,425.541 -385.3394,0 -754.87157,-153.0649 -1027.34768,-425.541 C 274.97702,2329.6704 121.91406,1960.1402 121.91406,1574.8008 121.91409,1189.4614 274.97703,819.92922 547.45312,547.45312 819.92922,274.97703 1189.4614,121.91409 1574.8008,121.91406 Z"
     id="path11" /></g>
        </g>
        <g
   transform="matrix(0.781557,0,0,0.88503,344.005,56.5238)"
   id="g2">
            <path
   d="M 651.301,2140.79 C 550.049,1976.04 491.64,1782.19 491.64,1574.8 491.64,976.989 976.989,491.64 1574.8,491.64 c 597.82,0 1083.17,485.349 1083.17,1083.16 0,207.39 -58.41,401.24 -159.66,565.98 -70.03,-19.36 -145.79,-25.01 -222.73,-13.98 -262.55,37.63 -442.58,255.69 -410.56,491.78 -92.38,25.67 -189.71,39.39 -290.22,39.39 -100.49,0 -197.81,-13.72 -290.18,-39.38 32.03,-236.1 -148,-454.16 -410.559,-491.79 -76.947,-11.03 -152.719,-5.38 -222.76,13.99 z M 2483.03,1200.78 c 0,-33.99 -31.25,-61.59 -69.75,-61.59 H 736.323 c -38.492,0 -69.744,27.6 -69.744,61.59 v 260.02 c 0,33.99 31.252,61.59 69.744,61.59 H 2413.28 c 38.5,0 69.75,-27.6 69.75,-61.59 z m -908.23,449.47 c -75.97,0 -137.65,29.67 -137.65,66.22 0,36.55 61.68,66.22 137.65,66.22 75.98,0 137.66,-29.67 137.66,-66.22 0,-36.55 -61.68,-66.22 -137.66,-66.22 z"
   style="fill:#ffffff"
   id="path1" />
        </g>
        <g
   id="EAR_R"
   transform="translate(97.8089,-12.4531)">
            <path
   d="m 978.09,381.896 c 191.87,0 347.65,155.777 347.65,347.65 0,191.874 -155.78,347.654 -347.65,347.654 -191.873,0 -347.65,-155.78 -347.65,-347.654 0,-191.873 155.777,-347.65 347.65,-347.65 z m 0,158.57 c -123.715,0 -224.156,100.441 -224.156,224.157 0,123.715 100.441,224.156 224.156,224.156 123.72,0 224.16,-100.441 224.16,-224.156 0,-123.716 -100.44,-224.157 -224.16,-224.157 z"
   style="fill:#ffffff"
   id="path2" />
        </g>
        <g
   id="EAR_L"
   transform="matrix(-1,0,0,1,3052.11,-12.4531)">
            <path
   d="m 978.09,381.896 c 191.87,0 347.65,155.777 347.65,347.65 0,191.874 -155.78,347.654 -347.65,347.654 -191.873,0 -347.65,-155.78 -347.65,-347.654 0,-191.873 155.777,-347.65 347.65,-347.65 z m 0,158.57 c -123.715,0 -224.156,100.441 -224.156,224.157 0,123.715 100.441,224.156 224.156,224.156 123.72,0 224.16,-100.441 224.16,-224.156 0,-123.716 -100.44,-224.157 -224.16,-224.157 z"
   style="fill:#ffffff"
   id="path3" />
        </g>
        <g
   id="EYE_R"
   transform="translate(-2.1253,6.37599)">
            <path
   d="m 1223.26,1089.6 c 73.31,0 132.84,59.52 132.84,132.83 0,73.32 -59.53,132.84 -132.84,132.84 -73.31,0 -132.83,-59.52 -132.83,-132.84 0,-73.31 59.52,-132.83 132.83,-132.83 z m 0,43.57 c -49.26,0 -89.26,40 -89.26,89.26 0,49.27 40,89.27 89.26,89.27 49.27,0 89.27,-40 89.27,-89.27 0,-49.26 -40,-89.26 -89.27,-89.26 z"
   style="fill:#ffffff"
   id="path4" />
        </g>
        <g
   id="EYE_L"
   transform="matrix(-1,0,0,1,3152.4,6.37599)">
            <path
   d="m 1223.26,1089.6 c 73.31,0 132.84,59.52 132.84,132.83 0,73.32 -59.53,132.84 -132.84,132.84 -73.31,0 -132.83,-59.52 -132.83,-132.84 0,-73.31 59.52,-132.83 132.83,-132.83 z m 0,43.57 c -49.26,0 -89.26,40 -89.26,89.26 0,49.27 40,89.27 89.26,89.27 49.27,0 89.27,-40 89.27,-89.27 0,-49.26 -40,-89.26 -89.27,-89.26 z"
   style="fill:#ffffff"
   id="path5" />
        </g>
        <g
   id="HAND_R"
   transform="matrix(0.965858,0.156748,-0.153984,0.948827,292.603,-32.4249)">
            <path
   d="m 1063.7,1897.4 c 220.55,0 399.65,186.23 399.65,415.67 0,229.44 -179.1,415.67 -399.65,415.67 -220.553,0 -399.659,-186.23 -399.659,-415.67 0,-229.44 179.106,-415.67 399.659,-415.67 z m -2.31,55.28 c -8.91,0.19 -17.01,4.63 -23.55,11.83 -10.42,11.47 -16.85,29.81 -16.43,50.27 0.42,20.46 7.59,38.51 18.47,49.53 6.83,6.92 15.11,11.01 24.02,10.82 8.92,-0.19 17.02,-4.63 23.56,-11.83 10.42,-11.47 16.85,-29.81 16.43,-50.27 -0.42,-20.46 -7.59,-38.51 -18.48,-49.53 -6.82,-6.92 -15.1,-11.01 -24.02,-10.82 z m 2.21,170.55 c -91.503,0.05 -165.477,85.29 -165.421,189.93 0.056,104.64 74.12,189.8 165.621,189.75 91.5,-0.05 165.47,-85.29 165.41,-189.93 -0.05,-104.64 -74.11,-189.8 -165.61,-189.75 z m -214.943,-96.11 c -8.555,2.54 -15.248,8.98 -19.717,17.66 -7.127,13.84 -8.641,33.25 -3.001,52.89 5.64,19.65 17.186,35.17 30.513,42.93 8.359,4.86 17.403,6.62 25.959,4.07 8.555,-2.55 15.248,-8.98 19.717,-17.66 7.126,-13.84 8.641,-33.25 3.001,-52.9 -5.641,-19.64 -17.186,-35.17 -30.514,-42.92 -8.358,-4.87 -17.402,-6.62 -25.958,-4.07 z m 419.373,-0.1 c -8.51,-2.7 -17.58,-1.12 -26.03,3.59 -13.46,7.51 -25.29,22.81 -31.28,42.35 -5.99,19.53 -4.83,38.97 2.05,52.94 4.31,8.76 10.89,15.32 19.39,18.03 8.51,2.7 17.59,1.12 26.03,-3.59 13.47,-7.5 25.29,-22.81 31.28,-42.35 6,-19.53 4.83,-38.97 -2.05,-52.94 -4.31,-8.76 -10.88,-15.32 -19.39,-18.03 z"
   style="fill:#ffffff"
   id="path6" />
        </g>
        <g
   id="HAND_L"
   transform="matrix(-0.965858,0.156748,0.153984,0.948827,2857.03,-32.4249)">
            <path
   d="m 1063.7,1897.4 c -220.553,0 -399.659,186.23 -399.659,415.67 0,229.44 179.106,415.67 399.659,415.67 220.55,0 399.65,-186.23 399.65,-415.67 0,-229.44 -179.1,-415.67 -399.65,-415.67 z m -14.59,57.31 c 8.91,-0.19 17.2,3.9 24.02,10.82 10.89,11.02 18.06,29.07 18.48,49.53 0.42,20.46 -6.01,38.8 -16.43,50.27 -6.54,7.2 -14.65,11.64 -23.56,11.83 -8.91,0.19 -17.19,-3.9 -24.02,-10.82 -10.88,-11.02 -18.06,-29.07 -18.48,-49.53 -0.41,-20.46 6.01,-38.8 16.44,-50.27 6.53,-7.2 14.64,-11.64 23.55,-11.83 z m 2.2,170.55 c 91.5,-0.05 165.57,85.11 165.62,189.75 0.06,104.64 -73.92,189.88 -165.41,189.93 -91.504,0.05 -165.568,-85.11 -165.624,-189.75 -0.055,-104.64 73.918,-189.88 165.414,-189.93 z m -214.936,-96.12 c 8.556,-2.54 17.6,-0.79 25.959,4.08 13.327,7.75 24.873,23.28 30.513,42.92 5.64,19.64 4.126,39.06 -3.001,52.9 -4.469,8.68 -11.162,15.11 -19.717,17.66 -8.556,2.54 -17.6,0.79 -25.958,-4.07 -13.328,-7.76 -24.873,-23.28 -30.514,-42.93 -5.64,-19.64 -4.125,-39.05 3.001,-52.89 4.469,-8.68 11.162,-15.12 19.717,-17.67 z m 419.376,-0.09 c 8.51,2.71 15.08,9.27 19.39,18.03 6.88,13.97 8.04,33.41 2.05,52.94 -5.99,19.54 -17.82,34.85 -31.28,42.35 -8.45,4.71 -17.52,6.29 -26.03,3.59 -8.51,-2.71 -15.08,-9.27 -19.39,-18.03 -6.88,-13.97 -8.05,-33.41 -2.05,-52.94 5.99,-19.54 17.82,-34.84 31.28,-42.35 8.44,-4.71 17.52,-6.29 26.03,-3.59 z"
   style="fill:#ffffff"
   id="path7" />
        </g>
    </g></g><g
       id="text9"
       style="font-weight:bold;font-size:85.3333px;line-height:1;font-family:'FOT-TsukuGo Pro';-inkscape-font-specification:'FOT-TsukuGo Pro Bold';letter-spacing:-2px;white-space:pre;fill:#ffffff;stroke-width:4"
       transform="matrix(0.26458333,0,0,0.26458333,2.5400885,-3.3838567)"
       aria-label="同志社大学&#10;ロボット研究会"
       inkscape:export-filename="../Pictures/doshisha-robot-logo.svg"
       inkscape:export-xdpi="96"
       inkscape:export-ydpi="96"><path
         style="font-weight:500;font-family:'M PLUS 1p';-inkscape-font-specification:'M PLUS 1p Medium'"
         d="m 407.7253,364.30477 v 6.82667 h -8.53333 v -36.52265 h 35.83998 v 29.69598 z m 0,-6.82666 h 18.77332 V 341.43545 H 407.7253 Z m 36.01065,6.82666 v -53.58931 h -53.24798 v 66.38931 h -9.04533 v -74.0693 h 71.33864 v 61.2693 q 0,8.448 -1.87733,10.32533 -1.792,1.96267 -9.472,1.96267 -4.864,0 -14.07999,-0.34134 l -0.42667,-7.93599 q 11.264,0.42666 12.37333,0.42666 3.24266,0 3.84,-0.59733 0.59733,-0.59733 0.59733,-3.84 z m -48.12798,-38.22931 v -7.25333 h 43.00798 v 7.25333 z m 142.38378,-8.704 h -32.85332 v 12.54399 h 28.58665 v 7.68 h -66.55997 v -7.68 h 28.58666 v -12.54399 h -32.85332 v -7.68 h 32.85332 v -9.04533 h 9.38666 v 9.04533 h 32.85332 z m -77.56797,51.11464 q 7.08267,-10.58132 10.58133,-22.86932 l 7.85066,2.73067 q -3.66933,13.90932 -11.34932,24.91732 z m 64.34131,-9.98399 q -0.256,4.608 -0.512,7.08266 -0.17067,2.47467 -0.85333,4.77867 -0.59734,2.304 -1.19467,3.15733 -0.512,0.85333 -2.048,1.62133 -1.536,0.85334 -3.072,1.024 -1.45066,0.256 -4.43733,0.512 -4.94933,0.42667 -10.92266,0.42667 -4.94933,0 -10.92266,-0.34134 -6.912,-0.42666 -8.53333,-2.30399 -1.62134,-1.87734 -1.62134,-9.472 v -22.52799 h 9.13067 v 20.90666 q 0,3.92533 0.42666,4.69333 0.512,0.768 2.98667,1.024 4.096,0.34133 8.10666,0.34133 3.66933,0 8.10667,-0.34133 1.79199,-0.17067 2.55999,-0.17067 0.768,-0.0853 1.70667,-0.68266 0.93867,-0.59734 1.10933,-0.93867 0.256,-0.42667 0.59734,-2.13333 0.42666,-1.792 0.512,-3.15734 0.0853,-1.36533 0.34133,-4.77866 z m -16.98133,1.96266 q -5.632,-7.93599 -12.97066,-15.27466 l 6.31467,-4.94933 q 7.67999,7.59467 13.14132,15.27466 z m 13.22666,-12.37332 7.50933,-3.92533 q 6.99733,11.51999 12.032,25.25865 l -7.68,3.49867 q -4.864,-13.65333 -11.86133,-24.83199 z m 85.97847,19.11466 h 16.46933 v 8.19199 h -46.93331 v -8.19199 h 21.33332 v -40.70399 h -17.91999 v -7.93599 h 17.91999 v -16.55466 h 9.13066 v 16.55466 h 15.18933 v 7.93599 h -15.18933 z m -41.13065,-53.07732 h 11.52 v 8.10667 q -3.328,8.02133 -7.59466,14.07999 9.04533,8.78933 13.90932,14.16533 l -5.97333,5.80266 q -5.376,-6.14399 -12.03199,-12.62932 v 34.47465 h -9.04533 v -28.24532 q -5.20533,4.60799 -11.43466,7.93599 l -2.21867,-9.47199 q 17.23733,-9.81333 24.57599,-26.11199 h -22.18666 v -8.10667 h 11.52 V 301.3288 h 8.95999 z m 64.55982,12.37333 v -8.10666 h 31.99999 V 301.3288 h 9.38666 v 17.06666 h 31.99999 v 8.10666 h -31.65865 q 1.62133,14.336 10.06933,25.34399 8.53333,11.008 23.03999,18.00533 l -4.864,6.99733 q -11.09333,-5.12 -19.71199,-14.336 -8.61867,-9.30133 -13.22667,-20.90665 -4.60799,11.60532 -13.48266,20.90665 -8.78933,9.216 -20.13865,14.336 l -4.864,-6.99733 q 14.50666,-6.99733 22.95465,-18.00533 8.53333,-11.00799 10.15467,-25.34399 z m 96.81579,6.22933 v -7.67999 h 46.42132 v 7.67999 q -6.99733,7.85067 -16.12799,14.50666 h 31.74398 v 7.85067 h -32.85332 v 12.54399 q 0,6.74133 -1.87733,8.27733 -1.792,1.536 -9.89866,1.536 -4.864,0 -13.65333,-0.34133 l -0.34133,-7.936 q 10.06933,0.42667 12.97066,0.42667 2.56,0 2.98666,-0.42667 0.42667,-0.42667 0.42667,-2.816 v -11.26399 h -35.41332 v -7.85067 h 35.41332 v -6.82666 h 5.632 q 4.864,-3.75467 9.21599,-7.68 z m 50.34665,-13.65332 h -54.27198 v 13.65332 h -8.70399 V 311.5688 h 11.51999 q -2.13333,-3.84 -4.43733,-7.68 l 8.02133,-3.24267 q 2.98667,4.69333 6.05866,10.92267 h 10.496 q -2.816,-5.46134 -4.69333,-8.53333 l 7.936,-3.24267 q 3.24266,5.29066 6.31466,11.776 h 9.30133 q 3.49866,-5.46134 6.31466,-11.264 l 8.192,2.304 q -2.56,5.12 -4.864,8.96 h 11.52 v 21.16265 h -8.704 z"
         id="path8" /><path
         style="font-weight:500;font-size:96px;font-family:'M PLUS 1p';-inkscape-font-specification:'M PLUS 1p Medium'"
         d="m 385.48531,395.83545 h 73.92 v 69.12 h -63.36 -10.56 z m 10.56,59.712 h 52.8 v -50.304 h -52.8 z m 115.11982,-41.952 h -35.04 v -9.12 h 35.04 v -15.36 h 10.56 v 15.36 h 33.12 v 9.12 h -33.12 v 43.2 q 0,8.448 -2.208,10.656 -2.112,2.304 -10.272,2.304 -6.72,0 -15.456,-1.248 l 1.056,-9.024 q 7.392,1.056 12.192,1.056 3.072,0 3.552,-0.672 0.576,-0.672 0.576,-4.416 z m 23.52,-25.152 7.104,-3.648 q 4.032,6.912 7.68,14.208 l -7.104,3.552 q -3.456,-6.72 -7.68,-14.112 z m 13.632,-1.44 7.296,-3.648 q 4.512,7.776 7.872,14.496 l -7.296,3.552 q -2.88,-5.472 -7.872,-14.4 z m -59.424,36 9.504,3.264 q -7.104,17.28 -15.84,33.888 l -9.216,-4.128 q 8.544,-16.416 15.552,-33.024 z m 43.68,3.36 9.216,-3.84 q 8.64,17.28 15.84,34.272 l -9.408,3.84 q -7.584,-17.952 -15.648,-34.272 z m 99.37582,-16.8 9.6,0.48 q -0.576,29.376 -11.712,42.528 -11.04,13.056 -37.44,16.128 l -1.92,-8.832 q 11.904,-1.632 19.392,-4.704 7.584,-3.072 12.576,-8.928 4.992,-5.952 7.104,-14.592 2.112,-8.736 2.4,-22.08 z m -52.992,4.32 9.12,-2.016 q 3.456,11.808 6.912,25.536 l -9.312,2.016 q -3.072,-12.672 -6.72,-25.536 z m 20.832,-2.592 9.312,-2.016 q 3.168,11.04 6.912,26.4 l -9.312,2.016 q -2.976,-12.576 -6.912,-26.4 z m 79.69581,-20.256 h 10.56 v 27.456 q 26.016,6.24 52.992,16.224 l -3.264,9.6 q -25.248,-9.408 -49.728,-15.456 v 40.896 h -10.56 z m 122.60782,31.2 q 0.192,-9.024 0.192,-15.072 v -8.448 h -8.832 v -8.64 h 49.152 v 8.64 h -9.12 v 23.52 h 10.08 v 8.64 h -10.08 v 41.28 h -10.08 v -41.28 h -11.904 q -1.056,16.992 -4.32,26.016 -3.168,9.024 -9.504,16.128 l -7.2,-7.68 q 5.28,-5.76 7.776,-12.864 2.592,-7.2 3.456,-21.6 h -9.504 v -8.64 z m 9.792,0 h 11.52 v -23.52 h -11.328 v 8.448 q 0,10.464 -0.192,15.072 z m -41.28,32.928 h 10.368 v -27.168 h -10.368 z m -15.36,-56.448 v -8.64 h 34.56 v 8.64 h -14.784 q -1.632,11.04 -4.896,20.64 h 19.68 v 44.16 h -19.2 v 7.68 h -9.408 v -34.752 q -3.072,5.568 -6.336,9.408 l -2.88,-11.808 q 10.56,-13.824 13.728,-35.328 z m 163.21582,29.856 q -0.768,0 -2.496,0.096 -1.728,0.096 -2.688,0.096 -1.824,0 -5.088,-0.192 -7.488,-0.288 -9.408,-1.44 -1.92,-1.248 -1.92,-5.568 v -18.24 h -8.16 q -0.768,20.544 -34.944,27.072 l -2.4,-8.16 q 14.4,-2.592 20.832,-7.296 6.432,-4.704 6.432,-11.616 h -16.8 v 11.232 h -9.888 v -19.68 h 35.52 v -10.08 h 10.56 v 10.08 h 35.52 v 16.8 h -9.792 v -8.352 h -16.8 v 14.112 q 0,2.304 0.384,2.688 0.48,0.384 3.168,0.576 1.152,0.096 3.84,0.096 2.688,0 3.84,-0.096 4.128,-0.192 4.896,-0.96 0.768,-0.864 1.152,-5.472 l 9.792,1.056 q -0.288,3.36 -0.48,5.184 -0.192,1.824 -0.96,3.552 -0.672,1.632 -1.44,2.304 -0.768,0.672 -2.784,1.248 -1.92,0.576 -4.032,0.768 -2.016,0.096 -5.856,0.192 z m 2.784,34.464 q 2.304,0 3.264,-0.192 0.96,-0.288 1.92,-0.768 0.96,-0.576 1.344,-2.784 0.384,-2.208 0.672,-4.608 0.384,-2.496 0.768,-8.064 l 9.312,1.152 q -0.288,4.704 -0.576,7.584 -0.192,2.88 -0.768,5.76 -0.576,2.784 -1.056,4.224 -0.48,1.536 -1.632,2.88 -1.152,1.344 -2.304,1.92 -1.056,0.576 -3.264,0.96 -2.112,0.48 -4.128,0.48 -2.016,0.096 -5.472,0.096 -9.6,0 -12.096,-1.728 -2.496,-1.632 -2.496,-7.872 v -19.2 h -17.088 q -2.976,11.328 -11.328,18.528 -8.256,7.2 -23.808,12.192 l -4.896,-8.16 q 13.44,-4.128 20.256,-9.216 6.816,-5.088 9.408,-13.344 h -23.04 v -8.64 h 24.672 q 0.288,-2.496 0.288,-8.16 h 10.368 q 0,4.704 -0.384,8.16 h 25.824 v 26.112 q 0,1.92 0.768,2.304 0.864,0.384 5.472,0.384 z m 92.5598,-48.096 v 7.296 h -54.71999 v -7.296 q -7.392,4.608 -13.632,7.968 l -4.32,-8.544 q 21.888,-11.904 38.976,-27.36 h 12.672 q 17.08799,15.456 38.97599,27.36 l -4.32,8.544 q -6.24,-3.36 -13.632,-7.968 z m -1.728,-1.056 q -13.34399,-8.64 -25.63199,-20.16 -12.288,11.52 -25.632,20.16 z m 0.672,28.704 q 7.584,12.96 15.36,27.84 l -8.928,3.936 q -0.672,-1.248 -2.304,-4.32 -1.536,-2.976 -2.4,-4.608 -35.13599,4.8 -65.95199,5.76 l -0.48,-8.64 q 9.12,-0.384 13.536,-0.672 5.856,-11.232 9.984,-21.408 h -25.92 v -8.64 h 81.59999 v 8.64 h -44.83199 q -4.032,10.272 -9.312,20.64 18.048,-1.248 37.05599,-3.648 -2.784,-5.088 -6.144,-10.944 z"
         id="path9" /></g></g></svg>
