<svg width="996" height="426" viewBox="0 0 996 426" fill="none" xmlns="http://www.w3.org/2000/svg">
<path d="M125.779 82.7274C114.341 92.5413 22.2495 165.709 11.1317 193.055C7.31294 202.448 13.6933 216.332 22.5784 221.238C37.5538 229.506 56.9242 223.382 73.5307 227.507C77.7715 228.56 65.1859 230.436 60.8264 230.737C53.621 231.234 46.3927 230.164 39.1759 229.878C37.5498 232.11 -7.89097 285.684 1.20162 300.907C33.9458 355.727 114.337 316.612 150.821 308.356C301.474 274.266 289.038 272.671 460.539 214.705C642.637 201.962 682.366 228.91 820.427 132.364C842.542 116.9 869.959 97.3435 872.614 70.5175C874.854 47.8898 853.523 23.0427 831.976 15.6831C791.449 1.84162 733.488 27.925 694.685 42.4703C694.344 84.0407 737.099 112.546 741.752 152.003C746.681 193.796 707.58 238.206 686.823 266.154C665.848 294.396 643.486 321.585 621.867 349.339C611.777 362.292 601.753 375.295 591.696 388.274C615.076 394.25 638.101 410.567 661.836 406.203C686.808 401.613 703.686 377.467 725.046 363.76C735.919 356.783 745.61 345.189 758.496 344.178C764.977 343.67 765.822 354.902 769.469 360.275C777.088 371.503 780.94 386.535 792.294 393.98C804.871 402.227 821.621 400.72 836.285 404.09C900.744 367.739 933.583 360.914 972.765 296.182C980.268 283.786 989.856 265.172 981.194 253.554C951.659 213.937 923.291 265.237 920.927 281.322C919.371 291.914 926.072 302.108 928.644 312.5C941.808 317.498 954.647 331.534 968.136 327.492C995.008 319.44 994.262 295.773 995.975 276.686C997.045 274.31 963.389 259.198 962.318 261.574C957.25 265.684 949.513 267.84 947.113 273.903C938.875 294.718 963.87 303.46 974.938 311.419C973.987 304.456 972.287 297.555 972.085 290.531C971.729 278.107 980.29 263.527 973.27 253.263C950.488 219.951 920.701 230.716 901.629 254.908C887.42 272.933 877.877 294.28 868.161 315.067C861.751 328.782 858.344 343.706 853.435 358.025C810.401 363.949 865.514 361.143 800.569 323.308C778.476 310.437 753.786 299.437 728.272 297.628C694.407 295.227 629.03 335.821 619.414 365.783C612.999 385.771 631.701 405.928 637.845 426C659.362 419.626 686.377 422.575 702.395 406.879C731.012 378.837 744.146 338.473 763.145 303.217C781.54 269.082 807.425 236.959 814.501 198.846C823.009 153.022 801.106 81.336 747.19 67.7746C736.576 65.1051 732.364 83.8539 724.952 91.8936C742.666 86.4008 805.474 68.2752 815.822 58.1081C827.937 46.205 847.314 21.4927 834.249 10.6368C814.031 -6.16313 780.51 0.111857 755.386 7.88906C232.4 169.781 1160.53 -22.8276 403.056 116.438C331.326 143.098 185.219 190.297 109.125 238.092C90.0268 250.088 73.4612 266.322 59.3743 283.92C53.2827 291.53 45.747 303.022 50.2201 311.68C60.9413 332.431 98.6079 194.037 82.2563 249.36C82.4929 231.336 91.8486 210.981 82.9661 195.288C77.3673 185.396 58.5833 184.507 49.1214 190.819C42.3584 195.331 50.937 207.135 53.8321 214.724C56.76 222.399 59.0844 239.826 66.3425 235.962C112.754 211.249 111.652 128.569 177.087 123.732C179.991 120.11 128.683 79.105 125.779 82.7274Z" fill="white" fill-opacity="0.217011"/>
</svg>