<?xml version="1.0" encoding="UTF-8" standalone="no"?>
<svg
   width="3150"
   height="3150"
   viewBox="0 0 3150 3150"
   version="1.1"
   id="svg1"
   xml:space="preserve"
   xmlns="http://www.w3.org/2000/svg"><g
     id="layer1"><g
       style="clip-rule:evenodd;fill-rule:evenodd;stroke-linecap:round;stroke-linejoin:round;stroke-miterlimit:1.5"
       id="g3"><g
         id="レイヤー1">
        <g
   transform="matrix(1.01184,0,0,1.01184,-18.641,-18.641)"
   id="g1">
            <g
   id="circle1"
   style="opacity:1"><path
     style="baseline-shift:baseline;clip-rule:nonzero;display:inline;overflow:visible;vector-effect:none;fill-rule:nonzero;stroke-linecap:butt;stroke-linejoin:miter;enable-background:accumulate;stop-color:#000000;stop-opacity:1"
     d="M 3053.3601,1574.8 A 1478.5601,1478.5601 0 0 1 1574.8,3053.3601 1478.5601,1478.5601 0 0 1 96.23999,1574.8 1478.5601,1478.5601 0 0 1 1574.8,96.23999 1478.5601,1478.5601 0 0 1 3053.3601,1574.8 Z"
     id="path8" /><path
     style="baseline-shift:baseline;clip-rule:nonzero;display:inline;overflow:visible;vector-effect:none;fill:#ffffff;fill-rule:nonzero;stroke-linecap:butt;stroke-linejoin:miter;enable-background:accumulate;stop-color:#000000;stop-opacity:1"
     d="M 1574.8008,70.560547 C 1175.8614,70.560571 793.23532,229.04984 511.14258,511.14258 229.04984,793.23532 70.560571,1175.8614 70.560547,1574.8008 c 0,398.9394 158.489283,781.5654 440.582033,1063.6582 282.09274,282.0927 664.71882,440.582 1063.65822,440.582 398.9394,0 781.5654,-158.4893 1063.6582,-440.582 282.0927,-282.0928 440.582,-664.7188 440.582,-1063.6582 0,-398.9394 -158.4893,-781.56548 -440.582,-1063.65822 C 2356.3662,229.04983 1973.7402,70.560547 1574.8008,70.560547 Z m 0,51.359373 c 385.3376,0 754.865,153.06423 1027.3398,425.53906 272.4749,272.47483 425.5391,642.00422 425.5391,1027.34182 0,385.3376 -153.0642,754.865 -425.5391,1027.3398 -272.4748,272.4749 -642.0022,425.5391 -1027.3398,425.5391 -385.3376,0 -754.86699,-153.0642 -1027.34182,-425.5391 C 274.98415,2329.6658 121.91992,1960.1384 121.91992,1574.8008 121.91995,1189.4632 274.98416,819.93381 547.45898,547.45898 819.93381,274.98416 1189.4632,121.91995 1574.8008,121.91992 Z"
     id="path9" /></g>
        </g>
        <g
   transform="matrix(0.781557,0,0,0.88503,344.005,56.5238)"
   id="g2">
            <path
   d="M 651.301,2140.79 C 550.049,1976.04 491.64,1782.19 491.64,1574.8 491.64,976.989 976.989,491.64 1574.8,491.64 c 597.82,0 1083.17,485.349 1083.17,1083.16 0,207.39 -58.41,401.24 -159.66,565.98 -70.03,-19.36 -145.79,-25.01 -222.73,-13.98 -262.55,37.63 -442.58,255.69 -410.56,491.78 -92.38,25.67 -189.71,39.39 -290.22,39.39 -100.49,0 -197.81,-13.72 -290.18,-39.38 32.03,-236.1 -148,-454.16 -410.559,-491.79 -76.947,-11.03 -152.719,-5.38 -222.76,13.99 z M 2483.03,1200.78 c 0,-33.99 -31.25,-61.59 -69.75,-61.59 H 736.323 c -38.492,0 -69.744,27.6 -69.744,61.59 v 260.02 c 0,33.99 31.252,61.59 69.744,61.59 H 2413.28 c 38.5,0 69.75,-27.6 69.75,-61.59 z m -908.23,449.47 c -75.97,0 -137.65,29.67 -137.65,66.22 0,36.55 61.68,66.22 137.65,66.22 75.98,0 137.66,-29.67 137.66,-66.22 0,-36.55 -61.68,-66.22 -137.66,-66.22 z"
   style="fill:#ffffff"
   id="path1" />
        </g>
        <g
   id="EAR_R"
   transform="translate(97.8089,-12.4531)">
            <path
   d="m 978.09,381.896 c 191.87,0 347.65,155.777 347.65,347.65 0,191.874 -155.78,347.654 -347.65,347.654 -191.873,0 -347.65,-155.78 -347.65,-347.654 0,-191.873 155.777,-347.65 347.65,-347.65 z m 0,158.57 c -123.715,0 -224.156,100.441 -224.156,224.157 0,123.715 100.441,224.156 224.156,224.156 123.72,0 224.16,-100.441 224.16,-224.156 0,-123.716 -100.44,-224.157 -224.16,-224.157 z"
   style="fill:#ffffff"
   id="path2" />
        </g>
        <g
   id="EAR_L"
   transform="matrix(-1,0,0,1,3052.11,-12.4531)">
            <path
   d="m 978.09,381.896 c 191.87,0 347.65,155.777 347.65,347.65 0,191.874 -155.78,347.654 -347.65,347.654 -191.873,0 -347.65,-155.78 -347.65,-347.654 0,-191.873 155.777,-347.65 347.65,-347.65 z m 0,158.57 c -123.715,0 -224.156,100.441 -224.156,224.157 0,123.715 100.441,224.156 224.156,224.156 123.72,0 224.16,-100.441 224.16,-224.156 0,-123.716 -100.44,-224.157 -224.16,-224.157 z"
   style="fill:#ffffff"
   id="path3" />
        </g>
        <g
   id="EYE_R"
   transform="translate(-2.1253,6.37599)">
            <path
   d="m 1223.26,1089.6 c 73.31,0 132.84,59.52 132.84,132.83 0,73.32 -59.53,132.84 -132.84,132.84 -73.31,0 -132.83,-59.52 -132.83,-132.84 0,-73.31 59.52,-132.83 132.83,-132.83 z m 0,43.57 c -49.26,0 -89.26,40 -89.26,89.26 0,49.27 40,89.27 89.26,89.27 49.27,0 89.27,-40 89.27,-89.27 0,-49.26 -40,-89.26 -89.27,-89.26 z"
   style="fill:#ffffff"
   id="path4" />
        </g>
        <g
   id="EYE_L"
   transform="matrix(-1,0,0,1,3152.4,6.37599)">
            <path
   d="m 1223.26,1089.6 c 73.31,0 132.84,59.52 132.84,132.83 0,73.32 -59.53,132.84 -132.84,132.84 -73.31,0 -132.83,-59.52 -132.83,-132.84 0,-73.31 59.52,-132.83 132.83,-132.83 z m 0,43.57 c -49.26,0 -89.26,40 -89.26,89.26 0,49.27 40,89.27 89.26,89.27 49.27,0 89.27,-40 89.27,-89.27 0,-49.26 -40,-89.26 -89.27,-89.26 z"
   style="fill:#ffffff"
   id="path5" />
        </g>
        <g
   id="HAND_R"
   transform="matrix(0.965858,0.156748,-0.153984,0.948827,292.603,-32.4249)">
            <path
   d="m 1063.7,1897.4 c 220.55,0 399.65,186.23 399.65,415.67 0,229.44 -179.1,415.67 -399.65,415.67 -220.553,0 -399.659,-186.23 -399.659,-415.67 0,-229.44 179.106,-415.67 399.659,-415.67 z m -2.31,55.28 c -8.91,0.19 -17.01,4.63 -23.55,11.83 -10.42,11.47 -16.85,29.81 -16.43,50.27 0.42,20.46 7.59,38.51 18.47,49.53 6.83,6.92 15.11,11.01 24.02,10.82 8.92,-0.19 17.02,-4.63 23.56,-11.83 10.42,-11.47 16.85,-29.81 16.43,-50.27 -0.42,-20.46 -7.59,-38.51 -18.48,-49.53 -6.82,-6.92 -15.1,-11.01 -24.02,-10.82 z m 2.21,170.55 c -91.503,0.05 -165.477,85.29 -165.421,189.93 0.056,104.64 74.12,189.8 165.621,189.75 91.5,-0.05 165.47,-85.29 165.41,-189.93 -0.05,-104.64 -74.11,-189.8 -165.61,-189.75 z m -214.943,-96.11 c -8.555,2.54 -15.248,8.98 -19.717,17.66 -7.127,13.84 -8.641,33.25 -3.001,52.89 5.64,19.65 17.186,35.17 30.513,42.93 8.359,4.86 17.403,6.62 25.959,4.07 8.555,-2.55 15.248,-8.98 19.717,-17.66 7.126,-13.84 8.641,-33.25 3.001,-52.9 -5.641,-19.64 -17.186,-35.17 -30.514,-42.92 -8.358,-4.87 -17.402,-6.62 -25.958,-4.07 z m 419.373,-0.1 c -8.51,-2.7 -17.58,-1.12 -26.03,3.59 -13.46,7.51 -25.29,22.81 -31.28,42.35 -5.99,19.53 -4.83,38.97 2.05,52.94 4.31,8.76 10.89,15.32 19.39,18.03 8.51,2.7 17.59,1.12 26.03,-3.59 13.47,-7.5 25.29,-22.81 31.28,-42.35 6,-19.53 4.83,-38.97 -2.05,-52.94 -4.31,-8.76 -10.88,-15.32 -19.39,-18.03 z"
   style="fill:#ffffff"
   id="path6" />
        </g>
        <g
   id="HAND_L"
   transform="matrix(-0.965858,0.156748,0.153984,0.948827,2857.03,-32.4249)">
            <path
   d="m 1063.7,1897.4 c -220.553,0 -399.659,186.23 -399.659,415.67 0,229.44 179.106,415.67 399.659,415.67 220.55,0 399.65,-186.23 399.65,-415.67 0,-229.44 -179.1,-415.67 -399.65,-415.67 z m -14.59,57.31 c 8.91,-0.19 17.2,3.9 24.02,10.82 10.89,11.02 18.06,29.07 18.48,49.53 0.42,20.46 -6.01,38.8 -16.43,50.27 -6.54,7.2 -14.65,11.64 -23.56,11.83 -8.91,0.19 -17.19,-3.9 -24.02,-10.82 -10.88,-11.02 -18.06,-29.07 -18.48,-49.53 -0.41,-20.46 6.01,-38.8 16.44,-50.27 6.53,-7.2 14.64,-11.64 23.55,-11.83 z m 2.2,170.55 c 91.5,-0.05 165.57,85.11 165.62,189.75 0.06,104.64 -73.92,189.88 -165.41,189.93 -91.504,0.05 -165.568,-85.11 -165.624,-189.75 -0.055,-104.64 73.918,-189.88 165.414,-189.93 z m -214.936,-96.12 c 8.556,-2.54 17.6,-0.79 25.959,4.08 13.327,7.75 24.873,23.28 30.513,42.92 5.64,19.64 4.126,39.06 -3.001,52.9 -4.469,8.68 -11.162,15.11 -19.717,17.66 -8.556,2.54 -17.6,0.79 -25.958,-4.07 -13.328,-7.76 -24.873,-23.28 -30.514,-42.93 -5.64,-19.64 -4.125,-39.05 3.001,-52.89 4.469,-8.68 11.162,-15.12 19.717,-17.67 z m 419.376,-0.09 c 8.51,2.71 15.08,9.27 19.39,18.03 6.88,13.97 8.04,33.41 2.05,52.94 -5.99,19.54 -17.82,34.85 -31.28,42.35 -8.45,4.71 -17.52,6.29 -26.03,3.59 -8.51,-2.71 -15.08,-9.27 -19.39,-18.03 -6.88,-13.97 -8.05,-33.41 -2.05,-52.94 5.99,-19.54 17.82,-34.84 31.28,-42.35 8.44,-4.71 17.52,-6.29 26.03,-3.59 z"
   style="fill:#ffffff"
   id="path7" />
        </g>
    </g></g></g></svg>
